<?xml version="1.0" standalone="no"?>
<!DOCTYPE svg PUBLIC "-//W3C//DTD SVG 1.1//EN" "http://www.w3.org/Graphics/SVG/1.1/DTD/svg11.dtd" >
<svg xmlns="http://www.w3.org/2000/svg">
<metadata>
Created by FontForge 20120731 at Tue Nov  8 17:19:27 2016
 By admin
</metadata>
<defs>
<font id="iconfont" horiz-adv-x="1024" >
  <font-face 
    font-family="iconfont"
    font-weight="500"
    font-stretch="normal"
    units-per-em="1024"
    panose-1="2 0 6 3 0 0 0 0 0 0"
    ascent="896"
    descent="-128"
    x-height="792"
    bbox="0 -192 1023 896"
    underline-thickness="0"
    underline-position="0"
    unicode-range="U+0078-E7B1"
  />
<missing-glyph 
 />
    <glyph glyph-name=".notdef" 
 />
    <glyph glyph-name=".notdef" 
 />
    <glyph glyph-name=".null" horiz-adv-x="0" 
 />
    <glyph glyph-name="nonmarkingreturn" horiz-adv-x="341" 
 />
    <glyph glyph-name="x" unicode="x" horiz-adv-x="1001" 
d="M281 543q-27 -1 -53 -1h-83q-18 0 -36.5 -6t-32.5 -18.5t-23 -32t-9 -45.5v-76h912v41q0 16 -0.5 30t-0.5 18q0 13 -5 29t-17 29.5t-31.5 22.5t-49.5 9h-133v-97h-438v97zM955 310v-52q0 -23 0.5 -52t0.5 -58t-10.5 -47.5t-26 -30t-33 -16t-31.5 -4.5q-14 -1 -29.5 -0.5
t-29.5 0.5h-32l-45 128h-439l-44 -128h-29h-34q-20 0 -45 1q-25 0 -41 9.5t-25.5 23t-13.5 29.5t-4 30v167h911zM163 247q-12 0 -21 -8.5t-9 -21.5t9 -21.5t21 -8.5q13 0 22 8.5t9 21.5t-9 21.5t-22 8.5zM316 123q-8 -26 -14 -48q-5 -19 -10.5 -37t-7.5 -25t-3 -15t1 -14.5
t9.5 -10.5t21.5 -4h37h67h81h80h64h36q23 0 34 12t2 38q-5 13 -9.5 30.5t-9.5 34.5q-5 19 -11 39h-368zM336 498v228q0 11 2.5 23t10 21.5t20.5 15.5t34 6h188q31 0 51.5 -14.5t20.5 -52.5v-227h-327z" />
    <glyph glyph-name="zhusu" unicode="&#xe758;" 
d="M514.5 732q-88.5 0 -169 -34.5t-138.5 -92.5t-92.5 -138.5t-34.5 -169t34.5 -169t92.5 -138.5t138.5 -92.5t169 -34.5t169 34.5t138.5 92.5t92.5 138.5t34.5 169t-34.5 169t-92.5 138.5t-138.5 92.5t-169 34.5zM514.5 -105q-109.5 0 -202 54t-146.5 146.5t-54 202t54 202
t146.5 146.5t202 54t202 -54t146.5 -146.5t54 -202t-54 -202t-146.5 -146.5t-202 -54zM721 268v65h-471q-12 -5 -13.5 -30.5t11.5 -34.5h473zM726 412q-41 9 -72.5 -11t-44.5 -61q25 3 39.5 6.5t31.5 10.5t28 20.5t18 34.5zM736 257h-507v-72h25v-56h54v56h428v-56h54v56v72
v218h-54v-218z" />
    <glyph glyph-name="infenicon17" unicode="&#xe7b0;" 
d="M488 300zM360 300q0 53 37.5 90.5t90.5 37.5t90.5 -37.5t37.5 -90.5t-37.5 -90.5t-90.5 -37.5t-90.5 37.5t-37.5 90.5z" />
    <glyph glyph-name="iconfontyoujiantou" unicode="&#xe62f;" 
d="M512 749q-91 0 -174 -35.5t-143.5 -95.5t-96 -143t-35.5 -174t35.5 -174t96 -143t143.5 -95.5t174 -35.5t174 35.5t143 95.5t95.5 143t35.5 174t-35.5 174t-95.5 143t-143 95.5t-174 35.5zM724 281q0 -1 -1 -3q-1 0 -1 -1q-3 -6 -6 -9v0h-1q-1 -2 -2 -3l-262 -252
q-14 -14 -34 -14q-22 0 -36 15q-15 15 -14.5 35.5t15.5 35.5l226 217l-227 215q-15 14 -15.5 34.5t13.5 35.5q15 16 36 16q20 0 35 -14l264 -250q12 -11 15 -27t-5 -31z" />
    <glyph glyph-name="dianhua" unicode="&#xe604;" 
d="M744 -147v0h-4q-81 4 -184 75.5t-204 194.5l-51 61q-101 123 -151.5 236.5t-38.5 191.5q9 52 71 94t113 42q35 0 46 -25q28 -49 53.5 -116t25.5 -95v-3l-1 -2q-8 -21 -41 -40q-17 -9 -24.5 -17t-8.5 -23q-2 -28 95 -147l38 -46q97 -115 125 -119q15 -2 24.5 3.5
t22.5 20.5q25 28 48 31h2h3q28 -6 89.5 -44.5t106.5 -76.5q24 -16 11 -57q-14 -46 -65 -92.5t-101 -46.5v0z" />
    <glyph glyph-name="weibiaoti6" unicode="&#xe601;" 
d="M384 286l409 398l-98 80l-477 -482l506 -474l82 91z" />
    <glyph glyph-name="weibiaoti7" unicode="&#xe602;" 
d="M651 294l-409 -398l98 -80l476 482l-505 474l-82 -90z" />
    <glyph glyph-name="qq" unicode="&#xe61f;" 
d="M859 154q-11 -2 -30.5 14.5t-41.5 45.5q-9 -63 -57 -112q40 -12 63 -34t20 -45q-3 -30 -45.5 -46t-98.5 -9q-39 5 -70 20t-46 36q-1 0 -10 -1t-14 -1q-3 0 -7.5 0.5t-6.5 0.5q-14 -21 -46.5 -36.5t-74.5 -20.5q-58 -6 -102 10.5t-49 46.5q-3 23 20.5 44.5t64.5 33.5
q-51 52 -58 119q-24 -28 -45.5 -43t-30.5 -10q-12 7 -17 31.5t1.5 61.5t24.5 74q20 40 48 70q-8 17 -8 37q0 40 23 54q-4 27 -4 42q0 111 79.5 190t191.5 79t191.5 -79t79.5 -190q0 -10 -4 -38v0.5v0.5q16 0 26.5 -17.5t10.5 -41.5q0 -36 -21 -52q25 -33 41 -72
q15 -36 18.5 -75t-2 -62.5t-14.5 -25.5z" />
    <glyph glyph-name="meishi" unicode="&#xe624;" 
d="M991 26h-958q-13 -6 -13 -20q0 -9 6.5 -15t15.5 -6h940q9 0 15.5 6t6.5 15q0 14 -13 20zM397 502q-88 -16 -152 -90q-32 -35 -47 -70q-3 -8 0 -16t11 -12q4 -2 9 -2q14 0 19 13q2 5 6.5 13t19 28.5t32.5 37.5t47.5 33.5t62.5 22.5q8 1 13 8.5t3.5 16t-8.5 13.5t-16 4z
M41 189h942q9 0 14.5 6t5.5 14.5t-5.5 14.5t-14.5 6h-20q0 153 -92.5 273t-235.5 161q-2 49 -37.5 84t-85.5 35t-85.5 -35t-37.5 -84q-143 -41 -235.5 -161t-92.5 -273h-20q-9 0 -15 -6t-6 -14.5t6 -14.5t15 -6zM512 742q30 0 53 -19.5t28 -49.5q-42 8 -81 8t-81 -8
q5 30 28 49.5t53 19.5zM512 640q111 0 205.5 -55t149.5 -149t55 -206h-820q0 112 55 206t149.5 149t205.5 55z" />
    <glyph glyph-name="fanhuidingbu" unicode="&#xe605;" 
d="M77 416l422 422q5 5 13 5t13 -5l422 -422q7 -6 19.5 -6t19.5 6q19 19 0 38l-429 423q-19 19 -51 19t-52 -19l-422 -423q-5 -4 -5 -16t5 -22t20 -10t25 10zM32 224h109v-346h51v346h109v38h-269v-38zM499 269q-86 0 -134 -58q-51 -61 -51 -147q0 -79 51 -141
q51 -51 128 -51q86 0 134 58q51 61 51 147q0 79 -51 141q-34 51 -128 51zM595 -45q-38 -38 -96 -38q-60 0 -96 45q-38 38 -38 115q0 67 38 115q45 45 96 45q58 0 96 -39q32 -32 32 -115q0 -74 -32 -128zM960 237q-43 32 -96 32h-109v-384h51v147h52q59 0 102 32q38 38 38 90
q0 54 -38 83zM922 90q-20 -20 -71 -20h-45v154h52q89 0 89 -77q0 -32 -25 -57z" />
    <glyph glyph-name="tripple-right" unicode="&#xe60f;" 
d="M393 622l238 -238l-238 -238v476z" />
    <glyph glyph-name="application" unicode="&#xe63c;" 
d="M1008 589l-218 -218q-15 -15 -36.5 -15t-36.5 15l-219 218q-15 16 -15 37t15 36l219 219q15 15 36.5 15t36.5 -15l218 -219q15 -15 15 -36t-15 -37zM754 841l-216 -216l216 -215l215 215zM370 -128h-313q-23 0 -40 16.5t-17 40.5v313q0 23 17 40t40 17h313q23 0 40 -17
t17 -40v-313q0 -24 -17 -40.5t-40 -16.5zM370 242h-313v-313h313v313zM370 384h-313q-23 0 -40 16.5t-17 40.5v312q0 24 17 40.5t40 16.5h313q23 0 40 -16.5t17 -40.5v-312q0 -24 -17 -40.5t-40 -16.5zM370 753h-313v-312h313v312zM569 299h313q23 0 39.5 -17t16.5 -40v-313
q0 -24 -16.5 -40.5t-39.5 -16.5h-313q-24 0 -40.5 16.5t-16.5 40.5v313q0 23 16.5 40t40.5 17zM569 -71h313v313h-313v-313z" />
    <glyph glyph-name="erweimasaomiao" unicode="&#xe635;" 
d="M249 246zM284 93h-163v697h163q9 0 16 7t7 16.5t-7 16t-16 6.5h-186q-9 0 -16 -6.5t-7 -16.5v-743q0 -10 7 -16.5t16 -6.5h186q9 0 16 6.5t7 16.5t-7 16.5t-16 6.5v0zM934 836h-186q-9 0 -16 -6.5t-7 -16t7 -16.5t16 -7h163v-697h-163q-9 0 -16 -6.5t-7 -16.5t7 -16.5
t16 -6.5h186q10 0 16.5 6.5t6.5 16.5v743q0 10 -6.5 16.5t-16.5 6.5v0zM748 442q0 9 -6.5 16t-16.5 7h-418q-9 0 -16 -7t-7 -16.5t7 -16.5t16 -7h418q10 0 16.5 7t6.5 17v0z" />
    <glyph glyph-name="zuo" unicode="&#xe720;" 
d="M28 362v0v25v0v0l181 186l17 -17l-165 -169h937v-25h-937l165 -168l-17 -17l-181 185v0z" />
    <glyph glyph-name="you" unicode="&#xe721;" 
d="M998 362l-181 -185l-17 17l165 168h-937v25h937l-165 169l17 17l181 -186v0v0v-25v0v0z" />
    <glyph glyph-name="huli" unicode="&#xe60a;" 
d="M479 240q10 -23 10 -53v-146q0 -8 -5 -13t-12 -5h-149q-8 0 -14 5.5t-6 12.5v98q0 23 -7 40q-8 20 -22 33l-83 86q-21 21 -31 45q-11 28 -11 54v163q0 8 5.5 13.5t13 5.5t13 -5.5t5.5 -13.5v-163q0 -18 9 -40q7 -18 23 -33l83 -86q18 -18 29 -45q9 -24 9 -54v-78h112v126
q0 23 -7 39q-8 20 -21 34l-144 149q-6 6 -5.5 13.5t6 13t13 5.5t12.5 -6l145 -149q19 -19 29 -46zM856.5 579q-7.5 0 -13 -5.5t-5.5 -13.5v-163q0 -23 -7 -40q-8 -20 -22 -34l-83 -85q-20 -21 -30 -46q-12 -27 -12 -53v-78h-111v126q0 18 8 39q8 18 23 34l145 149
q5 6 5 13.5t-5.5 13t-13 5.5t-13.5 -6l-144 -149q-22 -22 -31 -46q-12 -29 -12 -53v-146q0 -7 6.5 -12.5t14.5 -5.5h149q7 0 11.5 5t4.5 13v98q0 18 9 39q8 19 23 34l83 85q18 19 29 46q10 24 10 54v163q0 8 -5.5 13.5t-13 5.5zM535 460q-2 -1 -4 -1v-109q0 -8 -5.5 -13.5
t-13.5 -5.5t-13.5 5.5t-5.5 13.5v111l-2 1l-146 69q-16 7 -27 21q-12 13 -17 30l-40 139q-4 11 5 19q5 5 12 5q4 0 7 -2l155 -57q21 -8 35 -24.5t18 -38.5l22 -126l47 114q6 17 19 29t30 18l135 49q3 1 6 1q8 0 13 -5q6 -6 6 -14q0 -2 -1 -5l-25 -92q-4 -18 -16 -32
q-11 -13 -28 -21zM563 514l122 58q9 5 15.5 12.5t8.5 16.5l16 59l-102 -37q-9 -3 -16 -10t-11 -15zM475 511l-18 106q-3 11 -10.5 20.5t-19.5 13.5l-120 45l30 -103q3 -10 9 -17t15 -12z" />
    <glyph glyph-name="icon03" unicode="&#xe671;" 
d="M512 752h-143l-324 -225v-47q0 -26 23 -44.5t55.5 -18.5t55.5 18.5t23 44.5q0 -26 23 -44.5t55.5 -18.5t55.5 18.5t23 44.5q0 -26 23 -44.5t55.5 -18.5t55.5 18.5t23 44.5q0 -26 23 -44.5t55.5 -18.5t55.5 18.5t23 44.5q0 -26 23.5 -44.5t55.5 -18.5t55.5 18.5t23.5 44.5
v47l-319 225v0zM246 526h-107l248 209l26 -5l-167 -204v0zM991 292q-6 61 -80 69l-209 -156h-222v185h-77v-185h-318v-95h47l-53 -106h129l54 106h141v-106h77v106h159l54 -106h133l-57 112l8 7q88 69 214 169v0z" />
    <glyph glyph-name="icon04" unicode="&#xe672;" 
d="M111 183h813q23 0 40.5 19t17.5 42q0 22 -17 38t-41 16h-5q-17 110 -95.5 193.5t-191.5 114.5q2 11 2 15q0 45 -34 76.5t-82 31.5t-82 -31.5t-34 -76.5q0 -5 1 -15q-113 -31 -191.5 -114.5t-95.5 -194.5h-5q-24 0 -41 -15.5t-17 -37.5q0 -23 17.5 -42t40.5 -19v0z
M518 675q24 0 41 -13.5t17 -35.5q0 -1 -0.5 -0.5t-0.5 -0.5q-7 1 -57.5 1t-57.5 -1q0 1 0 0.5t0 0.5q0 22 16.5 35.5t41.5 13.5v0zM273 386q59 89 166 117q2 1 4 1v0v0q3 1 6 1q12 0 21 -8t9 -20q0 -10 -7 -17.5t-18 -8.5v-1q-83 -22 -131 -90q-7 -16 -26 -16q-12 0 -20.5 8
t-8.5 19v0q0 8 5 15v0zM924 132h-813q-24 0 -41 -14t-17 -36q0 -23 17 -38.5t41 -15.5h813q24 0 41 15.5t17 38.5q0 22 -17 36t-41 14z" />
    <glyph glyph-name="icon01" unicode="&#xe673;" 
d="M238 358q9 8 21 8q14 0 23 -10q1 0 2 -2l1 -2q122 -93 166 -136q11 -10 17.5 -27.5t8.5 -37t2 -35.5t-1.5 -32.5t-1.5 -19.5q0 -22 -30.5 -41t-69.5 -19q-37 0 -60.5 13t-49.5 40q-10 10 -31.5 33.5t-47 50.5t-54.5 56q-22 22 -37.5 58.5t-22.5 72.5t-10.5 69t-4.5 53
t0 21v0q0 18 14 31.5t33.5 13.5t33.5 -13.5t14 -32.5h1q0 -16 1 -40.5t11.5 -74.5t28.5 -68q44 -45 101 -71q16 -7 15 3q-1 11 -10 21q-3 3 -19 21.5t-30.5 35l-14.5 16.5l1 1l-0.5 0.5l-1.5 1.5q-8 8 -8 20q0 13 10 22v0zM903 197q-29 -29 -54.5 -56t-47.5 -50.5t-31 -33.5
q-26 -27 -49.5 -40t-60.5 -13q-40 0 -70 19t-30 41q0 3 -1.5 19.5t-1.5 32.5t2 35.5t8.5 37t17.5 27.5q41 40 165 139q3 4 4 5q9 9 22 9t22.5 -8.5t9.5 -20.5t-9 -21q0 -1 -0.5 -1t-1.5 -1l1 -1q-56 -70 -63 -76q-11 -11 -10 -22q0 -9 15 -2q57 26 101 71q18 18 28.5 64
t11.5 83l1 37h1q0 18 14 31.5t33.5 13.5t33.5 -13.5t14 -31.5v0v0q0 -9 -0.5 -23t-4 -51.5t-10.5 -70.5t-23 -70t-37 -59v0zM520 304q-22 17 -64.5 46.5t-76.5 54t-69 54.5t-54.5 61t-19.5 59q0 43 17 78.5t43 57t59 30t64 2t58.5 -31t42.5 -64.5q13 38 40 63t58 33
t63.5 1.5t59 -25.5t43.5 -53t17 -77q1 -28 -18.5 -60t-55 -65t-67.5 -58.5t-76.5 -58t-63.5 -47.5v0z" />
    <glyph glyph-name="icon02" unicode="&#xe674;" 
d="M693 254q0 -13 -9.5 -21.5t-23.5 -8.5h-54q-9 0 -15.5 -6t-6.5 -14v-69q0 -12 -9.5 -21t-23.5 -9h-44q-13 0 -22.5 9t-9.5 21v69q0 8 -6.5 14t-15.5 6h-55q-13 0 -22.5 8.5t-9.5 21.5v39q0 12 9.5 21t22.5 9h55q9 0 15.5 5.5t6.5 13.5v50q0 12 9.5 20.5t22.5 8.5h44
q14 0 23.5 -8.5t9.5 -20.5v-50q0 -8 6 -13.5t16 -5.5h54q14 0 23.5 -9t9.5 -21v-39v0zM867 568h-697q-46 0 -78 -29t-32 -70v-392q0 -41 32 -69.5t78 -28.5h697q45 0 77 28.5t32 69.5v392q0 41 -32 70t-77 29zM279 607h43q9 0 15.5 6t6.5 14q0 26 19.5 48.5t45.5 22.5h218
q26 0 46 -22.5t20 -48.5q0 -8 6 -14t16 -6h43q9 0 15.5 6t6.5 14v51q0 41 -32 70t-77 29h-305q-45 0 -77 -29t-32 -70v-51q0 -8 6 -14t16 -6v0z" />
    <glyph glyph-name="icon06" unicode="&#xe675;" 
d="M751 254q-118 0 -201 81t-83 195q0 62 27 119l-33 30q-70 61 -167.5 61t-167.5 -61q-77 -69 -77 -167t77 -167l397 -352l305 271q-37 -10 -78 -10h1zM747 759q-94 0 -160.5 -67t-66.5 -162t66.5 -162t160.5 -67t161 67t67 162t-67 162t-161 67zM747 362
q-69 0 -117.5 49.5t-48.5 119t48.5 118.5t117.5 49t118 -49t49 -118.5t-49 -119t-118 -49.5zM834 551h-64v84q0 11 -7.5 18.5t-18.5 7.5t-19 -7.5t-8 -18.5v-136h117v0q11 0 19 7.5t8 18.5t-8 18.5t-19 7.5v0v0z" />
    <glyph glyph-name="icon07" unicode="&#xe676;" 
d="M877 779h-24v-98q0 -24 -16.5 -40.5t-40.5 -16.5h-69q-23 0 -40 16.5t-17 40.5v98h-302v-98q0 -24 -16.5 -40.5t-40.5 -16.5h-69q-23 0 -39.5 16.5t-16.5 40.5v98h-25q-45 -1 -77 -33t-32 -77v-617v0q0 -45 32 -77t77 -32h716q45 0 77.5 32t32.5 77v617q0 46 -32.5 78
t-77.5 32v0v0zM917 52q0 -16 -11.5 -28t-28.5 -12h-716q-16 0 -28 12t-12 28v0v414h796v-414zM242 662h69q8 0 13.5 5.5t5.5 13.5v151q0 8 -5.5 13.5t-13.5 5.5h-69v0q-7 0 -12.5 -5.5t-5.5 -13.5v0v-151q0 -8 5.5 -13.5t13.5 -5.5h-1zM727 662h69q8 0 13.5 5.5t5.5 13.5v0
v151q0 8 -5.5 13.5t-13.5 5.5h-69v0q-8 0 -13.5 -5.5t-5.5 -13.5v-151q0 -8 5.5 -13.5t13.5 -5.5v0z" />
    <glyph glyph-name="icon05-copy" unicode="&#xe677;" 
d="M651 301q-101 0 -173 69.5t-72 167.5q0 75 45 137q-67 54 -155 54v0q-101 0 -172 -69t-71 -167q0 -102 77 -172l3 -2l301 -279q16 -12 36 -12t36 12l251 232l-38 38q-34 -9 -68 -9v0zM961 332l-131 128q17 36 17 78q0 63 -38 113t-98 69q-31 9 -67 9q-78 -2 -134 -57.5
t-56 -133.5q0 -79 57.5 -135t139.5 -56q42 0 81 17l58 -58l72 -70q21 -20 50 -20v0v0q29 0 49 20q21 20 21 48.5t-21 47.5v0zM652.5 415q-51.5 0 -88.5 35.5t-37 86t37 86t88.5 35.5t88 -35.5t36.5 -86t-36.5 -86t-88 -35.5z" />
    <glyph glyph-name="zuo-copy" unicode="&#xe7b1;" 
d="M534 -100v0h-25v0v0l-186 181l17 17l169 -165v937h24v-937l169 165l17 -17l-185 -182v1z" />
  </font>
</defs>
</svg>
